<svg xmlns="http://www.w3.org/2000/svg" version="1.1" xmlns:xlink="http://www.w3.org/1999/xlink" xmlns:svgjs="http://svgjs.com/svgjs" width="1440" height="560" preserveAspectRatio="none" viewBox="0 0 1440 560"><g mask="url(&quot;#SvgjsMask1116&quot;)" fill="none"><rect width="1440" height="560" x="0" y="0" fill="rgba(20, 63, 128, 0.966)"></rect><path d="M0,553.463C115.094,564.731,240.428,587.975,338.899,527.337C437.76,466.459,465.989,340.426,516.062,235.677C567.088,128.935,652.184,25.756,634.597,-91.241C617.027,-208.122,522.014,-300.612,425.245,-368.477C340.463,-427.935,230.675,-418.18,130.579,-444.712C33.865,-470.348,-55.444,-543.052,-153.217,-521.808C-252.417,-500.254,-315.315,-407.48,-384.155,-332.872C-455.155,-255.924,-524.893,-179.08,-560.35,-80.566C-601.661,34.212,-655.836,165.43,-603.091,275.423C-550.355,385.397,-409.539,413.844,-298.778,464.908C-202.496,509.297,-105.518,543.133,0,553.463" fill="rgba(16, 50, 102, 0.966)"></path><path d="M1440 1043.501C1548.769 1058.8310000000001 1671.204 1122.891 1762.35 1061.587 1853.77 1000.0989999999999 1832.837 859.8910000000001 1868.153 755.531 1899.15 663.933 1947.993 581.886 1957.255 485.63 1968.642 367.296 2014.202 218.94 1927.626 137.47000000000003 1838.691 53.77999999999997 1686.319 154.57600000000002 1569.09 120.358 1452.174 86.23200000000003 1380.28-62.95399999999995 1258.594-57.81200000000001 1136.328-52.64499999999998 1043.653 54.653999999999996 962.222 146.003 879.923 238.325 796.231 343.122 791.031 466.692 785.96 587.189 863.161 693.779 935.097 790.581 996.303 872.944 1079.4470000000001 932.309 1171.195 978.268 1255.337 1020.4169999999999 1346.813 1030.367 1440 1043.501" fill="rgba(24, 76, 154, 0.966)"></path></g><defs><mask id="SvgjsMask1116"><rect width="1440" height="560" fill="#ffffff"></rect></mask></defs></svg>