<svg xmlns="http://www.w3.org/2000/svg" xmlns:xlink="http://www.w3.org/1999/xlink" xmlns:svgjs="http://svgjs.com/svgjs" version="1.1" width="1440" height="700" preserveAspectRatio="none" viewBox="0 0 1440 700"><g mask="url(&quot;#SvgjsMask1030&quot;)" fill="none"><rect width="1440" height="700" x="0" y="0" fill="rgba(30, 35, 41, 1)"/><path d="M1117 216L1116 407" stroke-width="8" stroke="url(#SvgjsLinearGradient1031)" stroke-linecap="round" class="Up"/><path d="M902 60L901 319" stroke-width="10" stroke="url(#SvgjsLinearGradient1032)" stroke-linecap="round" class="Down"/><path d="M1124 136L1123 -349" stroke-width="6" stroke="url(#SvgjsLinearGradient1031)" stroke-linecap="round" class="Up"/><path d="M927 227L926 622" stroke-width="8" stroke="url(#SvgjsLinearGradient1032)" stroke-linecap="round" class="Down"/><path d="M16 176L15 384" stroke-width="8" stroke="url(#SvgjsLinearGradient1031)" stroke-linecap="round" class="Up"/><path d="M530 344L529 843" stroke-width="6" stroke="url(#SvgjsLinearGradient1032)" stroke-linecap="round" class="Down"/><path d="M186 393L185 573" stroke-width="8" stroke="url(#SvgjsLinearGradient1032)" stroke-linecap="round" class="Down"/><path d="M1421 482L1420 873" stroke-width="6" stroke="url(#SvgjsLinearGradient1031)" stroke-linecap="round" class="Up"/><path d="M5 668L4 286" stroke-width="10" stroke="url(#SvgjsLinearGradient1032)" stroke-linecap="round" class="Down"/><path d="M607 618L606 1044" stroke-width="6" stroke="url(#SvgjsLinearGradient1032)" stroke-linecap="round" class="Down"/><path d="M1166 447L1165 758" stroke-width="8" stroke="url(#SvgjsLinearGradient1032)" stroke-linecap="round" class="Down"/><path d="M461 393L460 585" stroke-width="8" stroke="url(#SvgjsLinearGradient1031)" stroke-linecap="round" class="Up"/><path d="M1154 300L1153 83" stroke-width="10" stroke="url(#SvgjsLinearGradient1031)" stroke-linecap="round" class="Up"/><path d="M459 436L458 99" stroke-width="6" stroke="url(#SvgjsLinearGradient1032)" stroke-linecap="round" class="Down"/><path d="M385 4L384 -426" stroke-width="8" stroke="url(#SvgjsLinearGradient1032)" stroke-linecap="round" class="Down"/><path d="M1118 412L1117 622" stroke-width="8" stroke="url(#SvgjsLinearGradient1032)" stroke-linecap="round" class="Down"/><path d="M310 52L309 336" stroke-width="6" stroke="url(#SvgjsLinearGradient1032)" stroke-linecap="round" class="Down"/><path d="M225 79L224 526" stroke-width="6" stroke="url(#SvgjsLinearGradient1031)" stroke-linecap="round" class="Up"/><path d="M300 112L299 -78" stroke-width="6" stroke="url(#SvgjsLinearGradient1031)" stroke-linecap="round" class="Up"/><path d="M861 155L860 -63" stroke-width="8" stroke="url(#SvgjsLinearGradient1031)" stroke-linecap="round" class="Up"/><path d="M649 115L648 494" stroke-width="6" stroke="url(#SvgjsLinearGradient1032)" stroke-linecap="round" class="Down"/><path d="M227 74L226 -293" stroke-width="8" stroke="url(#SvgjsLinearGradient1031)" stroke-linecap="round" class="Up"/><path d="M140 169L139 -228" stroke-width="6" stroke="url(#SvgjsLinearGradient1031)" stroke-linecap="round" class="Up"/><path d="M1142 555L1141 787" stroke-width="8" stroke="url(#SvgjsLinearGradient1031)" stroke-linecap="round" class="Up"/><path d="M773 284L772 -67" stroke-width="6" stroke="url(#SvgjsLinearGradient1031)" stroke-linecap="round" class="Up"/><path d="M1268 350L1267 838" stroke-width="8" stroke="url(#SvgjsLinearGradient1032)" stroke-linecap="round" class="Down"/><path d="M0 690L-1 1138" stroke-width="6" stroke="url(#SvgjsLinearGradient1031)" stroke-linecap="round" class="Up"/><path d="M1166 361L1165 38" stroke-width="6" stroke="url(#SvgjsLinearGradient1031)" stroke-linecap="round" class="Up"/><path d="M1395 476L1394 913" stroke-width="6" stroke="url(#SvgjsLinearGradient1032)" stroke-linecap="round" class="Down"/><path d="M124 176L123 440" stroke-width="8" stroke="url(#SvgjsLinearGradient1032)" stroke-linecap="round" class="Down"/><path d="M256 674L255 407" stroke-width="8" stroke="url(#SvgjsLinearGradient1032)" stroke-linecap="round" class="Down"/><path d="M659 531L658 253" stroke-width="6" stroke="url(#SvgjsLinearGradient1032)" stroke-linecap="round" class="Down"/><path d="M687 637L686 1115" stroke-width="10" stroke="url(#SvgjsLinearGradient1032)" stroke-linecap="round" class="Down"/><path d="M854 527L853 127" stroke-width="8" stroke="url(#SvgjsLinearGradient1032)" stroke-linecap="round" class="Down"/><path d="M445 576L444 328" stroke-width="6" stroke="url(#SvgjsLinearGradient1031)" stroke-linecap="round" class="Up"/><path d="M460 368L459 -6" stroke-width="10" stroke="url(#SvgjsLinearGradient1031)" stroke-linecap="round" class="Up"/></g><defs><mask id="SvgjsMask1030"><rect width="1440" height="700" fill="white"/></mask><linearGradient x1="0%" y1="100%" x2="0%" y2="0%" id="SvgjsLinearGradient1031"><stop stop-color="rgba(73, 80, 87, 0)" offset="0"/><stop stop-color="rgba(73, 80, 87, 0.1)" offset="1"/></linearGradient><linearGradient x1="0%" y1="0%" x2="0%" y2="100%" id="SvgjsLinearGradient1032"><stop stop-color="rgba(73, 80, 87, 0)" offset="0"/><stop stop-color="rgba(73, 80, 87, 0.1)" offset="1"/></linearGradient></defs></svg>